<?xml version="1.0" standalone="no"?>
<!DOCTYPE svg PUBLIC "-//W3C//DTD SVG 20010904//EN"
 "http://www.w3.org/TR/2001/REC-SVG-20010904/DTD/svg10.dtd">
<svg version="1.0" xmlns="http://www.w3.org/2000/svg"
 width="500.000000pt" height="500.000000pt" viewBox="0 0 500.000000 500.000000"
 preserveAspectRatio="xMidYMid meet">
<metadata>
Created by potrace 1.16, written by Peter Selinger 2001-2019
</metadata>
<g transform="translate(0.000000,500.000000) scale(0.100000,-0.100000)"
fill="#000000" stroke="none">
<path d="M0 2500 l0 -2500 2500 0 2500 0 0 2500 0 2500 -2500 0 -2500 0 0
-2500z m1671 619 c98 -114 125 -139 133 -127 6 8 60 71 119 141 l109 127 79 0
80 0 -15 -22 c-14 -19 -16 -65 -16 -298 0 -233 2 -279 16 -298 l15 -22 -90 0
c-88 0 -102 5 -81 26 7 7 9 84 8 209 l-3 199 -114 -132 c-63 -73 -117 -132
-120 -132 -3 0 -58 61 -121 135 l-115 135 -3 -196 c-2 -164 0 -201 13 -220
l15 -24 -90 0 c-82 0 -107 8 -80 25 6 4 10 97 10 246 l0 239 -38 0 c-46 0 -82
-29 -82 -68 l-1 -27 -19 23 c-30 37 -35 86 -13 128 30 58 71 74 184 74 l97 0
123 -141z m1212 74 c-21 -100 -19 -96 -47 -78 -21 14 -48 16 -154 13 -117 -3
-132 -5 -164 -27 -100 -69 -118 -205 -39 -295 41 -46 82 -56 236 -56 86 0 155
4 167 11 18 10 19 8 13 -12 -4 -12 -26 -46 -49 -76 l-41 -54 -135 3 c-124 3
-140 5 -192 31 -65 32 -121 90 -152 156 -31 68 -30 199 3 261 35 66 60 97 103
127 75 51 128 62 305 63 l161 0 -15 -67z m721 55 c-4 -7 -66 -92 -137 -188
-71 -96 -151 -204 -178 -240 l-48 -65 147 -3 c132 -2 148 -1 165 16 10 11 20
31 20 45 2 26 2 26 21 8 23 -24 31 -98 14 -131 -7 -13 -29 -35 -47 -47 -33
-23 -40 -23 -302 -23 -148 0 -269 2 -269 5 0 2 83 117 185 255 l184 250 -162
0 c-128 0 -167 -3 -184 -15 l-21 -15 15 68 c8 37 16 73 18 80 3 9 71 12 295
12 230 0 290 -3 284 -12z m-2038 -860 c-14 -19 -16 -65 -16 -301 0 -173 4
-286 10 -298 10 -18 7 -19 -75 -19 -77 0 -102 8 -75 25 6 4 10 111 10 288 0
240 -2 286 -16 305 l-15 22 96 0 96 0 -15 -22z m536 -200 l193 -221 3 198 c2
165 0 202 -13 221 l-15 24 95 0 96 0 -15 -22 c-14 -19 -16 -65 -16 -301 0
-173 4 -286 10 -298 10 -18 7 -19 -67 -19 l-78 1 -190 221 -190 222 -3 -193
c-2 -153 1 -199 12 -222 l14 -29 -88 0 -88 0 14 29 c12 25 14 78 12 299 -3
249 -4 272 -22 291 l-19 21 81 0 81 0 193 -222z m792 201 c-15 -17 -19 -40
-22 -130 l-4 -109 80 0 c94 0 88 -4 201 137 92 115 106 123 226 123 l70 0 -33
-22 c-46 -29 -264 -298 -253 -312 119 -152 318 -395 333 -408 25 -23 66 -23
90 -1 17 15 18 15 18 -1 0 -28 -27 -72 -57 -91 -36 -24 -103 -24 -136 1 -15
10 -96 107 -182 214 -86 107 -165 203 -177 213 -16 13 -39 17 -100 17 l-80 0
4 -109 c2 -72 8 -114 17 -125 12 -15 6 -16 -77 -16 l-91 0 15 28 c11 21 14 76
14 255 l0 227 -39 0 c-50 0 -83 -26 -85 -68 0 -18 -2 -32 -4 -32 -1 0 -11 15
-22 33 -41 67 -11 159 60 184 19 7 84 12 144 12 l109 1 -19 -21z m680 -250
c36 -28 33 -83 -6 -112 -32 -24 -59 -19 -118 24 l-44 32 30 24 c30 26 81 52
100 53 6 0 23 -10 38 -21z"/>
</g>
</svg>
